<svg width="1686" height="1686" viewBox="0 0 1686 1686" fill="none" xmlns="http://www.w3.org/2000/svg">
<path d="M1019.17 843V1005.79C1019.17 1007.75 1019.17 1009.71 1019.05 1011.67C1015.94 1102.12 941.641 1174.45 850.499 1174.45C759.358 1174.45 685.176 1102.12 682.061 1011.67H681.945V674.446H850.499C943.602 674.446 1019.17 749.897 1019.17 843Z" fill="#F8B501"/>
<path d="M1019.17 1517.45V1686H850.499C757.397 1686 681.945 1610.55 681.945 1517.45C681.945 1424.34 757.397 1348.89 850.499 1348.89C943.602 1348.89 1019.17 1424.34 1019.17 1517.45Z" fill="#F8B501"/>
<path d="M1686 674.446V1517.45C1686 1610.55 1610.55 1686 1517.45 1686H1348.78V843C1348.78 749.897 1424.34 674.446 1517.45 674.446H1686Z" fill="#F8B501"/>
<path d="M1686 0V168.669C1686 261.772 1610.55 337.223 1517.45 337.223H513.391C420.173 337.223 344.722 412.79 344.722 505.892V1517.45C344.722 1610.55 269.271 1686 176.168 1686H0V168.669C0 75.5666 75.4512 0 168.554 0H1686Z" fill="#F8B501"/>
</svg>
